<svg width="36" height="36" viewBox="0 0 36 36" fill="none" xmlns="http://www.w3.org/2000/svg">
<path fill-rule="evenodd" clip-rule="evenodd" d="M18 36C27.9411 36 36 27.9411 36 18C36 8.05887 27.9411 0 18 0C8.05887 0 0 8.05887 0 18C0 27.9411 8.05887 36 18 36Z" fill="#52AB84"/>
<path d="M13.2564 23H21.87V20.733H17.1541V20.6591L18.5462 19.375C21.0689 17.1761 21.728 16.0568 21.728 14.7216C21.728 12.625 20.0178 11.2045 17.3757 11.2045C14.8018 11.2045 13.0803 12.6875 13.0859 15.0568H15.7507C15.7507 14.0057 16.3984 13.3977 17.3643 13.3977C18.3132 13.3977 19.0007 13.983 19.0007 14.9432C19.0007 15.8125 18.4553 16.4034 17.5007 17.2614L13.2564 20.9773V23Z" fill="white"/>
</svg>
